<svg width="22" height="19" viewBox="0 0 22 19" fill="none" xmlns="http://www.w3.org/2000/svg">
<path d="M7.71173 16.3767L8.17605 15.7877L7.71173 16.3767ZM10.75 2.96645L10.2096 3.48655C10.351 3.63345 10.5461 3.71645 10.75 3.71645C10.9539 3.71645 11.149 3.63345 11.2904 3.48655L10.75 2.96645ZM13.7883 16.3767L14.2526 16.9657L13.7883 16.3767ZM7.71173 16.3767L8.17605 15.7877C6.66039 14.5929 5.00307 13.4261 3.68829 11.9456C2.39922 10.4941 1.5 8.80032 1.5 6.60292H0.75H0C0 9.26845 1.1105 11.3019 2.56672 12.9416C3.99723 14.5524 5.82077 15.841 7.24742 16.9657L7.71173 16.3767ZM0.75 6.60292H1.5C1.5 4.45205 2.71537 2.64834 4.37436 1.89001C5.98607 1.1533 8.15166 1.3484 10.2096 3.48655L10.75 2.96645L11.2904 2.44635C8.8485 -0.0906584 6.01409 -0.508793 3.75076 0.525781C1.53471 1.53874 0 3.89085 0 6.60292H0.75ZM7.71173 16.3767L7.24742 16.9657C7.75965 17.3695 8.30954 17.8001 8.86682 18.1257C9.42386 18.4512 10.0596 18.7158 10.75 18.7158V17.9658V17.2158C10.4404 17.2158 10.0761 17.0951 9.62361 16.8306C9.17132 16.5663 8.70208 16.2024 8.17605 15.7877L7.71173 16.3767ZM13.7883 16.3767L14.2526 16.9657C15.6792 15.841 17.5028 14.5524 18.9333 12.9416C20.3895 11.3019 21.5 9.26845 21.5 6.60292H20.75H20C20 8.80032 19.1008 10.4941 17.8117 11.9456C16.4969 13.4261 14.8396 14.5929 13.324 15.7877L13.7883 16.3767ZM20.75 6.60292H21.5C21.5 3.89085 19.9653 1.53874 17.7492 0.525781C15.4859 -0.508793 12.6515 -0.0906584 10.2096 2.44635L10.75 2.96645L11.2904 3.48655C13.3483 1.3484 15.5139 1.1533 17.1256 1.89001C18.7846 2.64834 20 4.45205 20 6.60292H20.75ZM13.7883 16.3767L13.324 15.7877C12.7979 16.2024 12.3287 16.5663 11.8764 16.8306C11.4239 17.0951 11.0596 17.2158 10.75 17.2158V17.9658V18.7158C11.4404 18.7158 12.0761 18.4512 12.6332 18.1257C13.1905 17.8001 13.7403 17.3695 14.2526 16.9657L13.7883 16.3767Z" fill="#191919"/>
</svg>
