<svg width="18" height="20" viewBox="0 0 18 20" fill="none" xmlns="http://www.w3.org/2000/svg">
<path d="M17.25 13.6667V9.08939C17.25 5.15816 17.25 3.19255 16.0418 1.97128C14.8336 0.75 12.8891 0.75 9 0.75C5.11091 0.75 3.16637 0.75 1.95818 1.97128C0.75 3.19255 0.75 5.15816 0.75 9.08939V13.6667C0.75 16.5052 0.75 17.9244 1.42293 18.5446C1.74386 18.8404 2.14897 19.0262 2.58051 19.0756C3.48535 19.1791 4.542 18.2445 6.65531 16.3753C7.58945 15.5491 8.05652 15.136 8.59692 15.0271C8.86302 14.9735 9.13698 14.9735 9.40308 15.0271C9.94348 15.136 10.4105 15.5491 11.3447 16.3753C13.458 18.2445 14.5146 19.1791 15.4195 19.0756C15.851 19.0262 16.2561 18.8404 16.5771 18.5446C17.25 17.9244 17.25 16.5052 17.25 13.6667Z" stroke="#191919" stroke-width="1.5"/>
</svg>
